<svg xmlns="http://www.w3.org/2000/svg" viewBox="0 0 200 200">
  <path fill="#000" d="M44.8,-76.2C56.7,-66.3,64.2,-56.2,71.2,-44.7C78.3,-33.2,84.9,-20.3,85.8,-6.9C86.7,6.6,82,21.4,74.5,34.8C67.1,48.2,57,60.2,44.6,68.7C32.2,77.2,16.1,82.1,1,80.6C-14,79.1,-28.1,71.2,-39.7,61C-51.4,50.9,-60.5,38.4,-69.1,24.8C-77.7,11.3,-85.8,-3.3,-83.2,-16.6C-80.6,-29.9,-67.2,-41.9,-54.7,-52.2C-42.2,-62.5,-30.6,-71.1,-17.1,-78.1C-3.6,-85.1,12,-90.5,26.2,-87.3C40.5,-84.1,53.5,-72.1,44.8,-76.2Z" transform="translate(100 100)"></path>
</svg>
